#!OML:ASF H:\GeneralSubjects\Female5\Project 1\Capture day 1\Session 1\Female5.ASF
:FULLY-SPECIFIED
:DEGREES
750
root -24.8292 15.5712 -2.78619 -165.662 -39.1514 -186.262
lowerback 3.1477 -4.1677 0.578395
upperback -10.2557 -6.05136 2.17344
thorax -12.6594 -3.09864 2.94277
lowerneck -15.1317 -6.28794 -7.64058
upperneck 30.5952 -8.11265 -2.26488
head 12.9886 -5.39629 -0.988622
rclavicle 1.27222e-013 -1.11319e-014
rhumerus -61.1754 10.4997 -64.3471
rradius 28.3628
rwrist -19.9278
rhand -26.8671 -24.0574
rfingers 7.12502
rthumb -0.29169 -54.0369
lclavicle 1.27222e-013 -1.11319e-014
lhumerus -27.6978 -12.8765 86.8213
lradius 40.3421
lwrist -11.3846
lhand -30.7498 25.2759
lfingers 7.12502
lthumb -4.04154 55.2174
rfemur -32.6766 -10.393 41.8642
rtibia 22.0076
rfoot -10.0193 -14.4184
rtoes 10.6626
lfemur 6.00054 -8.7799 -46.0995
ltibia 11.6817
lfoot -9.56137 -5.61929
ltoes -44.2098
751
root -25.1026 15.5517 -2.84273 -166.026 -39.7114 -185.365
lowerback 2.98807 -4.09259 1.72552
upperback -10.3663 -5.83029 2.58288
thorax -12.775 -3.09095 2.72787
lowerneck -15.1875 -6.33144 -7.65334
upperneck 30.4358 -8.05656 -2.50995
head 12.9228 -5.39331 -1.06495
rclavicle -5.30755e-014 -9.54166e-015
rhumerus -60.4953 10.409 -63.1977
rradius 27.8996
rwrist -20.0314
rhand -27.2585 -24.345
rfingers 7.12502
rthumb -0.66979 -54.3237
lclavicle -5.30755e-014 -9.54166e-015
lhumerus -28.4269 -13.4014 88.1514
lradius 40.0385
lwrist -11.3039
lhand -30.3939 25.1535
lfingers 7.12502
lthumb -3.69788 55.1012
rfemur -32.4754 -11.0966 41.7338
rtibia 22.7553
rfoot -10.5673 -12.9366
rtoes 12.0831
lfemur 6.11352 -8.59018 -45.9379
ltibia 12.7678
lfoot -9.33857 -5.41752
ltoes -44.1148
752
root -25.3724 15.5419 -2.89386 -166.442 -39.9959 -184.481
lowerback 2.96364 -3.94625 2.72795
upperback -10.467 -5.52532 2.99222
thorax -12.9478 -3.02895 2.5947
lowerneck -15.188 -6.34337 -7.6257
upperneck 30.2555 -7.98411 -2.725
head 12.8356 -5.37583 -1.12995
rclavicle -7.31528e-014 2.06736e-014
rhumerus -59.6962 10.3932 -62.2281
rradius 27.4831
rwrist -20.1242
rhand -27.6328 -24.6926
rfingers 7.12502
rthumb -1.03126 -54.6698
lclavicle -7.31528e-014 2.06736e-014
lhumerus -29.2996 -13.9476 89.3562
lradius 39.7061
lwrist -11.0086
lhand -29.9388 25.116
lfingers 7.12502
lthumb -3.25833 55.0709
rfemur -32.1513 -11.7484 41.5591
rtibia 23.3884
rfoot -10.9166 -11.3868
rtoes 12.5947
lfemur 6.0162 -7.79434 -45.6536
ltibia 14.0288
lfoot -8.7366 -5.28408
ltoes -43.5078
753
root -25.6356 15.5412 -2.94238 -166.827 -40.0205 -183.703
lowerback 3.02926 -3.74537 3.48086
upperback -10.5597 -5.16744 3.3801
thorax -13.1417 -2.91899 2.57537
lowerneck -15.1388 -6.33097 -7.5759
upperneck 30.0813 -7.91468 -2.87349
head 12.7426 -5.35061 -1.17168
rclavicle 4.17448e-015 1.59028e-014
rhumerus -58.8452 10.4965 -61.5183
rradius 27.2062
rwrist -20.279
rhand -27.9847 -25.1055
rfingers 7.12502
rthumb -1.37115 -55.0808
lclavicle 4.17448e-015 1.59028e-014
lhumerus -30.2969 -14.5328 90.4112
lradius 39.3107
lwrist -10.6207
lhand -29.3292 25.0644
lfingers 7.12502
lthumb -2.66967 55.0274
rfemur -31.6696 -12.1564 41.2568
rtibia 23.8535
rfoot -11.2275 -9.91418
rtoes 12.931
lfemur 5.64968 -6.22217 -45.2211
ltibia 15.5061
lfoot -7.55292 -5.245
ltoes -42.0994
754
root -25.8912 15.5498 -2.99222 -167.189 -39.8596 -183.075
lowerback 3.17312 -3.52153 3.94734
upperback -10.6297 -4.79942 3.7322
thorax -13.3309 -2.77649 2.67637
lowerneck -15.0858 -6.30867 -7.50866
upperneck 29.9641 -7.86864 -2.94814
head 12.6751 -5.32751 -1.1947
rclavicle -1.45113e-014 -1.90833e-014
rhumerus -57.9866 10.6866 -61.0751
rradius 27.1156
rwrist -20.4854
rhand -28.2984 -25.4661
rfingers 7.12502
rthumb -1.6741 -55.4393
lclavicle -1.45113e-014 -1.90833e-014
lhumerus -31.4003 -15.1268 91.2902
lradius 38.8402
lwrist -10.2896
lhand -28.532 24.9167
lfingers 7.12502
lthumb -1.89975 54.888
rfemur -30.903 -12.286 40.7791
rtibia 24.0148
rfoot -11.6312 -8.63013
rtoes 13.2381
lfemur 5.04945 -3.84253 -44.6026
ltibia 17.2639
lfoot -5.6337 -5.1601
ltoes -39.4376
755
root -26.1374 15.5664 -3.04648 -167.531 -39.6022 -182.585
lowerback 3.35703 -3.30321 4.13117
upperback -10.6775 -4.46145 4.04649
thorax -13.496 -2.62009 2.89512
lowerneck -14.9936 -6.27932 -7.46238
upperneck 29.8978 -7.85164 -2.92331
head 12.6266 -5.31056 -1.18244
rclavicle 8.92543e-014 -4.29375e-014
rhumerus -57.1658 10.9295 -60.9008
rradius 27.2372
rwrist -20.747
rhand -28.563 -25.6405
rfingers 7.12502
rthumb -1.92966 -55.6115
lclavicle 8.92543e-014 -4.29375e-014
lhumerus -32.5809 -15.6383 91.9459
lradius 38.2953
lwrist -10.144
lhand -27.5862 24.622
lfingers 7.12502
lthumb -0.986284 54.5995
rfemur -29.8141 -12.0953 40.1608
rtibia 23.7822
rfoot -12.2273 -7.66938
rtoes 13.5081
lfemur 4.2119 -0.71507 -43.7226
ltibia 19.4085
lfoot -2.85799 -4.65297
ltoes -34.6516
756
root -26.3737 15.5897 -3.10673 -167.896 -39.3386 -182.19
lowerback 3.56102 -3.11488 4.09377
upperback -10.6966 -4.18214 4.32308
thorax -13.6252 -2.46839 3.20024
lowerneck -14.8893 -6.26538 -7.47739
upperneck 29.881 -7.89248 -2.75499
head 12.6069 -5.30956 -1.11759
rclavicle -3.73715e-014 -2.38542e-014
rhumerus -56.4178 11.2052 -61.0024
rradius 27.5682
rwrist -21.1032
rhand -28.7941 -25.5613
rfingers 7.12502
rthumb -2.15285 -55.5301
lclavicle -3.73715e-014 -2.38542e-014
lhumerus -33.79 -15.9627 92.3262
lradius 37.6735
lwrist -10.235
lhand -26.5646 24.1879
lfingers 7.12502
lthumb 0.00046157 54.1676
rfemur -28.3883 -11.5849 39.4564
rtibia 23.1395
rfoot -13.0915 -7.1188
rtoes 13.8556
lfemur 3.1782 2.93741 -42.539
ltibia 22.0052
lfoot 0.0920152 -3.11728
ltoes -30.6859
757
root -26.6 15.6172 -3.17237 -168.309 -39.1426 -181.847
lowerback 3.77043 -2.97281 3.90705
upperback -10.6864 -3.97847 4.56165
thorax -13.7161 -2.33656 3.55384
lowerneck -14.689 -6.2629 -7.64415
upperneck 29.8287 -7.99459 -2.33395
head 12.5746 -5.31876 -0.937417
rclavicle -5.28767e-014 1.90833e-014
rhumerus -55.7433 11.4822 -61.3621
rradius 28.0647
rwrist -21.5573
rhand -28.9899 -25.2413
rfingers 7.12502
rthumb -2.34193 -55.2082
lclavicle -5.28767e-014 1.90833e-014
lhumerus -34.9743 -16.0353 92.3887
lradius 36.981
lwrist -10.5049
lhand -25.6474 23.7325
lfingers 7.12502
lthumb 0.886297 53.7104
rfemur -26.6836 -10.8114 38.7302
rtibia 22.1489
rfoot -14.2212 -6.99205
rtoes 14.3429
lfemur 1.97828 6.75412 -41.0707
ltibia 25.0918
lfoot 2.7591 -0.343205
ltoes -27.9868
758
root -26.8162 15.6457 -3.24081 -168.782 -39.0551 -181.504
lowerback 3.98548 -2.88396 3.66278
upperback -10.6555 -3.85239 4.75845
thorax -13.7859 -2.23567 3.90326
lowerneck -14.5031 -6.2824 -7.78341
upperneck 29.7552 -8.136 -1.89414
head 12.5378 -5.33817 -0.760675
rclavicle 3.02153e-014 7.4743e-014
rhumerus -55.1536 11.7698 -61.9833
rradius 28.6964
rwrist -22.0855
rhand -29.0944 -24.7652
rfingers 7.12502
rthumb -2.4429 -54.7309
lclavicle 3.02153e-014 7.4743e-014
lhumerus -36.0646 -15.7088 92.049
lradius 36.212
lwrist -10.9613
lhand -25.001 23.4144
lfingers 7.12502
lthumb 1.51063 53.3888
rfemur -24.8154 -9.87169 38.0668
rtibia 20.9248
rfoot -15.5098 -7.27491
rtoes 14.7054
lfemur 0.606102 10.3723 -39.3723
ltibia 28.6162
lfoot 4.61072 3.51787
ltoes -25.8799
759
root -27.023 15.6723 -3.30813 -169.329 -39.0855 -181.113
lowerback 4.22486 -2.84549 3.44377
upperback -10.613 -3.79116 4.91975
thorax -13.8619 -2.16833 4.211
lowerneck -14.355 -6.3236 -7.84648
upperneck 29.6502 -8.29428 -1.53192
head 12.4897 -5.36417 -0.628366
rclavicle 1.37161e-014 9.54166e-015
rhumerus -54.6509 12.0908 -62.8365
rradius 29.4258
rwrist -22.5964
rhand -29.0542 -24.2085
rfingers 7.12502
rthumb -2.40403 -54.1747
lclavicle 1.37161e-014 9.54166e-015
lhumerus -37.0211 -15.042 91.316
lradius 35.3554
lwrist -11.4368
lhand -24.7153 23.3848
lfingers 7.12502
lthumb 1.78652 53.3571
rfemur -22.9282 -8.81105 37.5224
rtibia 19.6528
rfoot -16.8688 -7.91892
rtoes 14.79
lfemur -0.963795 13.5009 -37.5291
ltibia 32.4775
lfoot 5.21831 7.853
ltoes -23.4297
760
root -27.2218 15.6962 -3.37024 -169.963 -39.2207 -180.63
lowerback 4.5086 -2.84624 3.32207
upperback -10.5631 -3.77059 5.05518
thorax -13.9659 -2.13022 4.44675
lowerneck -14.2608 -6.37948 -7.82236
upperneck 29.5065 -8.44824 -1.27506
head 12.4278 -5.38868 -0.549529
rclavicle 5.28767e-014 2.38542e-014
rhumerus -54.2342 12.4751 -63.8852
rradius 30.2295
rwrist -22.9967
rhand -28.876 -23.6768
rfingers 7.12502
rthumb -2.23191 -53.6448
lclavicle 5.28767e-014 2.38542e-014
lhumerus -37.8288 -14.0259 90.2052
lradius 34.4189
lwrist -11.8811
lhand -24.8295 23.6879
lfingers 7.12502
lthumb 1.67625 53.6611
rfemur -21.1013 -7.78536 37.1324
rtibia 18.4113
rfoot -18.103 -8.79912
rtoes 14.4213
lfemur -2.77415 15.9608 -35.6327
ltibia 36.5686
lfoot 4.3064 11.6943
ltoes -20.3363
761
root -27.4136 15.7173 -3.42361 -170.628 -39.4228 -180.061
lowerback 4.81459 -2.86689 3.31642
upperback -10.5228 -3.76516 5.17104
thorax -14.1053 -2.11235 4.60318
lowerneck -14.2109 -6.44682 -7.73315
upperneck 29.3331 -8.58469 -1.14223
head 12.3533 -5.4116 -0.525377
rclavicle 9.00495e-014 5.24792e-014
rhumerus -53.9285 13.0012 -65.1247
rradius 31.123
rwrist -23.269
rhand -28.6261 -23.274
rfingers 7.12502
rthumb -1.9906 -53.2445
lclavicle 9.00495e-014 5.24792e-014
lhumerus -38.5031 -12.6285 88.7377
lradius 33.4241
lwrist -12.3285
lhand -25.3207 24.2642
lfingers 7.12502
lthumb 1.20187 54.2406
rfemur -19.4472 -6.81482 36.8899
rtibia 17.2907
rfoot -19.1788 -9.81452
rtoes 13.6878
lfemur -4.92555 17.6921 -33.8049
ltibia 40.783
lfoot 4.0704 13.6633
ltoes -22.447
762
root -27.6007 15.738 -3.46636 -171.305 -39.6609 -179.431
lowerback 5.14618 -2.89802 3.4239
upperback -10.4866 -3.76036 5.27103
thorax -14.276 -2.10728 4.68332
lowerneck -14.2194 -6.52352 -7.62085
upperneck 29.1612 -8.7024 -1.10084
head 12.2854 -5.4338 -0.538565
rclavicle 6.93758e-014 5.56597e-014
rhumerus -53.7206 13.6953 -66.5006
rradius 32.0963
rwrist -23.3794
rhand -28.398 -23.0342
rfingers 7.12502
rthumb -1.77028 -53.0066
lclavicle 6.93758e-014 5.56597e-014
lhumerus -39.0694 -10.8248 86.9478
lradius 32.3998
lwrist -12.8578
lhand -26.0976 25.0076
lfingers 7.12502
lthumb 0.451526 54.9869
rfemur -17.9602 -5.97009 36.7359
rtibia 16.293
rfoot -20.0823 -10.8542
rtoes 12.6885
lfemur -7.42132 18.6997 -32.1259
ltibia 44.9966
lfoot 3.16082 14.1533
ltoes -23.5123
763
root -27.784 15.7606 -3.49793 -171.924 -39.901 -178.796
lowerback 5.47526 -2.92898 3.59077
upperback -10.46 -3.74928 5.35947
thorax -14.4626 -2.10675 4.71833
lowerneck -14.1775 -6.58658 -7.66055
upperneck 28.9477 -8.80494 -0.911004
head 12.2071 -5.44576 -0.466503
rclavicle -6.81831e-014 -1.11319e-013
rhumerus -53.5793 14.5268 -67.921
rradius 33.136
rwrist -23.3084
rhand -28.2354 -22.9398
rfingers 7.12502
rthumb -1.61323 -52.9134
lclavicle -6.81831e-014 -1.11319e-013
lhumerus -39.5806 -8.63148 84.8892
lradius 31.4019
lwrist -13.5074
lhand -27.044 25.8398
lfingers 7.12502
lthumb -0.462568 55.8191
rfemur -16.6584 -5.22504 36.6115
rtibia 15.3972
rfoot -20.8074 -11.8904
rtoes 11.3798
lfemur -10.2714 19.0496 -30.6313
ltibia 49.1052
lfoot 1.7056 13.3789
ltoes -23.4003
